<mxfile host="Electron" agent="Mozilla/5.0 (Windows NT 10.0; Win64; x64) AppleWebKit/537.36 (KHTML, like Gecko) draw.io/26.2.15 Chrome/134.0.6998.205 Electron/35.2.1 Safari/537.36" version="26.2.15">
  <diagram name="Page-1" id="hnb-dgsdLazNEUhqL7KP">
    <mxGraphModel dx="983" dy="580" grid="0" gridSize="10" guides="1" tooltips="1" connect="1" arrows="1" fold="1" page="1" pageScale="1" pageWidth="1169" pageHeight="827" math="0" shadow="0">
      <root>
        <mxCell id="0" />
        <mxCell id="1" parent="0" />
        <mxCell id="ixp1-Cj3Stt_EI4cemVe-1" value="&lt;font style=&quot;font-size: 18px;&quot;&gt;&lt;b style=&quot;&quot;&gt;write()&lt;/b&gt;&lt;/font&gt;" style="ellipse;whiteSpace=wrap;html=1;strokeWidth=3;fillColor=#d5e8d4;strokeColor=#000000;" parent="1" vertex="1">
          <mxGeometry x="90" y="360" width="220" height="80" as="geometry" />
        </mxCell>
        <mxCell id="ixp1-Cj3Stt_EI4cemVe-17" value="" style="endArrow=classic;html=1;rounded=0;exitX=1;exitY=0.5;exitDx=0;exitDy=0;entryX=0;entryY=0.5;entryDx=0;entryDy=0;strokeWidth=3;" parent="1" source="ixp1-Cj3Stt_EI4cemVe-1" target="ixp1-Cj3Stt_EI4cemVe-14" edge="1">
          <mxGeometry width="50" height="50" relative="1" as="geometry">
            <mxPoint x="430" y="330" as="sourcePoint" />
            <mxPoint x="480" y="280" as="targetPoint" />
          </mxGeometry>
        </mxCell>
        <mxCell id="ixp1-Cj3Stt_EI4cemVe-18" value="" style="endArrow=classic;html=1;rounded=0;entryX=0.579;entryY=0.001;entryDx=0;entryDy=0;strokeWidth=3;entryPerimeter=0;" parent="1" target="ixp1-Cj3Stt_EI4cemVe-13" edge="1">
          <mxGeometry width="50" height="50" relative="1" as="geometry">
            <mxPoint x="310" y="400" as="sourcePoint" />
            <mxPoint x="630" y="326" as="targetPoint" />
          </mxGeometry>
        </mxCell>
        <mxCell id="ixp1-Cj3Stt_EI4cemVe-19" value="" style="endArrow=classic;html=1;rounded=0;strokeWidth=3;entryX=0.469;entryY=-0.009;entryDx=0;entryDy=0;entryPerimeter=0;" parent="1" target="ixp1-Cj3Stt_EI4cemVe-15" edge="1">
          <mxGeometry width="50" height="50" relative="1" as="geometry">
            <mxPoint x="310" y="400" as="sourcePoint" />
            <mxPoint x="616" y="475" as="targetPoint" />
          </mxGeometry>
        </mxCell>
        <mxCell id="ixp1-Cj3Stt_EI4cemVe-21" value="&lt;b&gt;&lt;font style=&quot;font-size: 16px;&quot;&gt;2. provení změny v souborém systému&lt;/font&gt;&lt;/b&gt;" style="text;html=1;align=center;verticalAlign=middle;whiteSpace=wrap;rounded=0;rotation=8;" parent="1" vertex="1">
          <mxGeometry x="356.5" y="430.17" width="299.49" height="24" as="geometry" />
        </mxCell>
        <mxCell id="ixp1-Cj3Stt_EI4cemVe-22" value="&lt;b&gt;&lt;font style=&quot;font-size: 16px;&quot;&gt;1. zapis záznamu do žurnálu&lt;/font&gt;&lt;/b&gt;" style="text;html=1;align=left;verticalAlign=middle;whiteSpace=wrap;rounded=0;rotation=347;" parent="1" vertex="1">
          <mxGeometry x="354.94" y="323.37" width="291.04" height="27" as="geometry" />
        </mxCell>
        <mxCell id="ixp1-Cj3Stt_EI4cemVe-23" value="&lt;b&gt;&lt;font style=&quot;font-size: 16px;&quot;&gt;3. smazání záznamu ze žurnálu&lt;/font&gt;&lt;/b&gt;" style="text;html=1;align=center;verticalAlign=middle;whiteSpace=wrap;rounded=0;rotation=-5;" parent="1" vertex="1">
          <mxGeometry x="391" y="374" width="270" height="30" as="geometry" />
        </mxCell>
        <mxCell id="ixp1-Cj3Stt_EI4cemVe-13" value="" style="shape=dataStorage;whiteSpace=wrap;html=1;fixedSize=1;rotation=-90;size=12.5;fillColor=#dae8fc;strokeColor=#000000;strokeWidth=3;container=0;" parent="1" vertex="1">
          <mxGeometry x="736" y="245" width="110" height="250" as="geometry" />
        </mxCell>
        <mxCell id="ixp1-Cj3Stt_EI4cemVe-14" value="&lt;span style=&quot;color: rgba(0, 0, 0, 0); font-family: monospace; font-size: 0px; text-align: start; text-wrap-mode: nowrap;&quot;&gt;%3CmxGraphModel%3E%3Croot%3E%3CmxCell%20id%3D%220%22%2F%3E%3CmxCell%20id%3D%221%22%20parent%3D%220%22%2F%3E%3CmxCell%20id%3D%222%22%20value%3D%22%22%20style%3D%22endArrow%3Dnone%3Bhtml%3D1%3Brounded%3D0%3BentryX%3D0%3BentryY%3D0.5%3BentryDx%3D0%3BentryDy%3D0%3B%22%20edge%3D%221%22%20parent%3D%221%22%3E%3CmxGeometry%20width%3D%2250%22%20height%3D%2250%22%20relative%3D%221%22%20as%3D%22geometry%22%3E%3CmxPoint%20x%3D%22980%22%20y%3D%22400%22%20as%3D%22sourcePoint%22%2F%3E%3CmxPoint%20x%3D%22980%22%20y%3D%22310%22%20as%3D%22targetPoint%22%2F%3E%3C%2FmxGeometry%3E%3C%2FmxCell%3E%3C%2Froot%3E%3C%2FmxGraphModel%3E&lt;/span&gt;" style="ellipse;whiteSpace=wrap;html=1;fillColor=#f8cecc;strokeColor=#000000;strokeWidth=3;container=0;" parent="1" vertex="1">
          <mxGeometry x="666" y="292" width="250" height="49" as="geometry" />
        </mxCell>
        <mxCell id="ixp1-Cj3Stt_EI4cemVe-15" value="" style="shape=dataStorage;whiteSpace=wrap;html=1;fixedSize=1;rotation=-90;size=22.5;fillColor=#fff2cc;strokeColor=#000000;strokeWidth=3;container=0;" parent="1" vertex="1">
          <mxGeometry x="738" y="321" width="106" height="250" as="geometry" />
        </mxCell>
        <mxCell id="ixp1-Cj3Stt_EI4cemVe-25" value="&lt;b&gt;&lt;font style=&quot;font-size: 18px;&quot;&gt;souborový systém&lt;/font&gt;&lt;/b&gt;" style="text;html=1;align=center;verticalAlign=middle;whiteSpace=wrap;rounded=0;container=0;" parent="1" vertex="1">
          <mxGeometry x="728" y="433.03" width="126" height="42" as="geometry" />
        </mxCell>
        <mxCell id="ixp1-Cj3Stt_EI4cemVe-26" value="&lt;b&gt;&lt;font style=&quot;font-size: 18px;&quot;&gt;žurnál&lt;/font&gt;&lt;/b&gt;" style="text;html=1;align=center;verticalAlign=middle;whiteSpace=wrap;rounded=0;container=0;" parent="1" vertex="1">
          <mxGeometry x="728" y="355" width="126" height="42" as="geometry" />
        </mxCell>
      </root>
    </mxGraphModel>
  </diagram>
</mxfile>
